# 42 verts, 80 faces
v 0.0000 -5.0000 0.0000
v 0.0000 5.0000 0.0000
v 2.5000 -4.3301 0.0000
v 1.7678 -4.3301 1.7678
v 0.0000 -4.3301 2.5000
v -1.7678 -4.3301 1.7678
v -2.5000 -4.3301 0.0000
v -1.7678 -4.3301 -1.7678
v -0.0000 -4.3301 -2.5000
v 1.7678 -4.3301 -1.7678
v 4.3301 -2.5000 0.0000
v 3.0619 -2.5000 3.0619
v 0.0000 -2.5000 4.3301
v -3.0619 -2.5000 3.0619
v -4.3301 -2.5000 0.0000
v -3.0619 -2.5000 -3.0619
v -0.0000 -2.5000 -4.3301
v 3.0619 -2.5000 -3.0619
v 5.0000 0.0000 0.0000
v 3.5355 0.0000 3.5355
v 0.0000 0.0000 5.0000
v -3.5355 0.0000 3.5355
v -5.0000 0.0000 0.0000
v -3.5355 0.0000 -3.5355
v -0.0000 0.0000 -5.0000
v 3.5355 0.0000 -3.5355
v 4.3301 2.5000 0.0000
v 3.0619 2.5000 3.0619
v 0.0000 2.5000 4.3301
v -3.0619 2.5000 3.0619
v -4.3301 2.5000 0.0000
v -3.0619 2.5000 -3.0619
v -0.0000 2.5000 -4.3301
v 3.0619 2.5000 -3.0619
v 2.5000 4.3301 0.0000
v 1.7678 4.3301 1.7678
v 0.0000 4.3301 2.5000
v -1.7678 4.3301 1.7678
v -2.5000 4.3301 0.0000
v -1.7678 4.3301 -1.7678
v -0.0000 4.3301 -2.5000
v 1.7678 4.3301 -1.7678
f 1 3 4
f 1 4 5
f 1 5 6
f 1 6 7
f 1 7 8
f 1 8 9
f 1 9 10
f 1 10 3
f 3 11 12
f 3 12 4
f 4 12 13
f 4 13 5
f 5 13 14
f 5 14 6
f 6 14 15
f 6 15 7
f 7 15 16
f 7 16 8
f 8 16 17
f 8 17 9
f 9 17 18
f 9 18 10
f 10 18 11
f 10 11 3
f 11 19 20
f 11 20 12
f 12 20 21
f 12 21 13
f 13 21 22
f 13 22 14
f 14 22 23
f 14 23 15
f 15 23 24
f 15 24 16
f 16 24 25
f 16 25 17
f 17 25 26
f 17 26 18
f 18 26 19
f 18 19 11
f 19 27 28
f 19 28 20
f 20 28 29
f 20 29 21
f 21 29 30
f 21 30 22
f 22 30 31
f 22 31 23
f 23 31 32
f 23 32 24
f 24 32 33
f 24 33 25
f 25 33 34
f 25 34 26
f 26 34 27
f 26 27 19
f 27 35 36
f 27 36 28
f 28 36 37
f 28 37 29
f 29 37 38
f 29 38 30
f 30 38 39
f 30 39 31
f 31 39 40
f 31 40 32
f 32 40 41
f 32 41 33
f 33 41 42
f 33 42 34
f 34 42 35
f 34 35 27
f 35 2 36
f 36 2 37
f 37 2 38
f 38 2 39
f 39 2 40
f 40 2 41
f 41 2 42
f 42 2 35
