# Generated by generate_assets.py — 48 verts, 72 faces
# No vertex normals — flat per-face geometric normals only

v -0.400000 0.000000 -0.180000
v -0.040000 0.000000 -0.180000
v -0.040000 0.000000 0.180000
v -0.400000 0.000000 0.180000
v -0.400000 0.900000 -0.180000
v -0.040000 0.900000 -0.180000
v -0.040000 0.900000 0.180000
v -0.400000 0.900000 0.180000
v 0.040000 0.000000 -0.180000
v 0.400000 0.000000 -0.180000
v 0.400000 0.000000 0.180000
v 0.040000 0.000000 0.180000
v 0.040000 0.900000 -0.180000
v 0.400000 0.900000 -0.180000
v 0.400000 0.900000 0.180000
v 0.040000 0.900000 0.180000
v -0.400000 0.900000 -0.220000
v 0.400000 0.900000 -0.220000
v 0.400000 0.900000 0.220000
v -0.400000 0.900000 0.220000
v -0.400000 1.900000 -0.220000
v 0.400000 1.900000 -0.220000
v 0.400000 1.900000 0.220000
v -0.400000 1.900000 0.220000
v -0.720000 1.060000 -0.140000
v -0.440000 1.060000 -0.140000
v -0.440000 1.060000 0.140000
v -0.720000 1.060000 0.140000
v -0.720000 1.900000 -0.140000
v -0.440000 1.900000 -0.140000
v -0.440000 1.900000 0.140000
v -0.720000 1.900000 0.140000
v 0.440000 1.060000 -0.140000
v 0.720000 1.060000 -0.140000
v 0.720000 1.060000 0.140000
v 0.440000 1.060000 0.140000
v 0.440000 1.900000 -0.140000
v 0.720000 1.900000 -0.140000
v 0.720000 1.900000 0.140000
v 0.440000 1.900000 0.140000
v -0.380000 1.900000 -0.360000
v 0.380000 1.900000 -0.360000
v 0.380000 1.900000 0.400000
v -0.380000 1.900000 0.400000
v -0.380000 2.660000 -0.360000
v 0.380000 2.660000 -0.360000
v 0.380000 2.660000 0.400000
v -0.380000 2.660000 0.400000

f 4 3 2
f 4 2 1
f 5 6 7
f 5 7 8
f 8 7 3
f 8 3 4
f 6 5 1
f 6 1 2
f 5 8 4
f 5 4 1
f 7 6 2
f 7 2 3
f 12 11 10
f 12 10 9
f 13 14 15
f 13 15 16
f 16 15 11
f 16 11 12
f 14 13 9
f 14 9 10
f 13 16 12
f 13 12 9
f 15 14 10
f 15 10 11
f 20 19 18
f 20 18 17
f 21 22 23
f 21 23 24
f 24 23 19
f 24 19 20
f 22 21 17
f 22 17 18
f 21 24 20
f 21 20 17
f 23 22 18
f 23 18 19
f 28 27 26
f 28 26 25
f 29 30 31
f 29 31 32
f 32 31 27
f 32 27 28
f 30 29 25
f 30 25 26
f 29 32 28
f 29 28 25
f 31 30 26
f 31 26 27
f 36 35 34
f 36 34 33
f 37 38 39
f 37 39 40
f 40 39 35
f 40 35 36
f 38 37 33
f 38 33 34
f 37 40 36
f 37 36 33
f 39 38 34
f 39 34 35
f 44 43 42
f 44 42 41
f 45 46 47
f 45 47 48
f 48 47 43
f 48 43 44
f 46 45 41
f 46 41 42
f 45 48 44
f 45 44 41
f 47 46 42
f 47 42 43
