# Generated by generate_assets.py — 56 verts, 96 faces
# No vertex normals — flat per-face geometric normals only

v 0.180000 0.000000 0.000000
v 0.090000 0.000000 0.155885
v -0.090000 0.000000 0.155885
v -0.180000 0.000000 0.000000
v -0.090000 0.000000 -0.155885
v 0.090000 0.000000 -0.155885
v 0.140000 1.200000 0.000000
v 0.070000 1.200000 0.121244
v -0.070000 1.200000 0.121244
v -0.140000 1.200000 0.000000
v -0.070000 1.200000 -0.121244
v 0.070000 1.200000 -0.121244
v 0.000000 0.000000 0.000000
v 0.000000 1.200000 0.000000
v 1.100000 0.700000 0.000000
v 0.550000 0.700000 0.952628
v -0.550000 0.700000 0.952628
v -1.100000 0.700000 0.000000
v -0.550000 0.700000 -0.952628
v 0.550000 0.700000 -0.952628
v 0.050000 1.800000 0.000000
v 0.025000 1.800000 0.043301
v -0.025000 1.800000 0.043301
v -0.050000 1.800000 0.000000
v -0.025000 1.800000 -0.043301
v 0.025000 1.800000 -0.043301
v 0.000000 0.700000 0.000000
v 0.000000 1.800000 0.000000
v 0.850000 1.400000 0.000000
v 0.425000 1.400000 0.736122
v -0.425000 1.400000 0.736122
v -0.850000 1.400000 0.000000
v -0.425000 1.400000 -0.736122
v 0.425000 1.400000 -0.736122
v 0.050000 2.600000 0.000000
v 0.025000 2.600000 0.043301
v -0.025000 2.600000 0.043301
v -0.050000 2.600000 0.000000
v -0.025000 2.600000 -0.043301
v 0.025000 2.600000 -0.043301
v 0.000000 1.400000 0.000000
v 0.000000 2.600000 0.000000
v 0.620000 2.100000 0.000000
v 0.310000 2.100000 0.536936
v -0.310000 2.100000 0.536936
v -0.620000 2.100000 0.000000
v -0.310000 2.100000 -0.536936
v 0.310000 2.100000 -0.536936
v 0.050000 3.300000 0.000000
v 0.025000 3.300000 0.043301
v -0.025000 3.300000 0.043301
v -0.050000 3.300000 0.000000
v -0.025000 3.300000 -0.043301
v 0.025000 3.300000 -0.043301
v 0.000000 2.100000 0.000000
v 0.000000 3.300000 0.000000

f 1 2 8
f 1 8 7
f 2 3 9
f 2 9 8
f 3 4 10
f 3 10 9
f 4 5 11
f 4 11 10
f 5 6 12
f 5 12 11
f 6 1 7
f 6 7 12
f 13 2 1
f 13 3 2
f 13 4 3
f 13 5 4
f 13 6 5
f 13 1 6
f 14 7 8
f 14 8 9
f 14 9 10
f 14 10 11
f 14 11 12
f 14 12 7
f 15 16 22
f 15 22 21
f 16 17 23
f 16 23 22
f 17 18 24
f 17 24 23
f 18 19 25
f 18 25 24
f 19 20 26
f 19 26 25
f 20 15 21
f 20 21 26
f 27 16 15
f 27 17 16
f 27 18 17
f 27 19 18
f 27 20 19
f 27 15 20
f 28 21 22
f 28 22 23
f 28 23 24
f 28 24 25
f 28 25 26
f 28 26 21
f 29 30 36
f 29 36 35
f 30 31 37
f 30 37 36
f 31 32 38
f 31 38 37
f 32 33 39
f 32 39 38
f 33 34 40
f 33 40 39
f 34 29 35
f 34 35 40
f 41 30 29
f 41 31 30
f 41 32 31
f 41 33 32
f 41 34 33
f 41 29 34
f 42 35 36
f 42 36 37
f 42 37 38
f 42 38 39
f 42 39 40
f 42 40 35
f 43 44 50
f 43 50 49
f 44 45 51
f 44 51 50
f 45 46 52
f 45 52 51
f 46 47 53
f 46 53 52
f 47 48 54
f 47 54 53
f 48 43 49
f 48 49 54
f 55 44 43
f 55 45 44
f 55 46 45
f 55 47 46
f 55 48 47
f 55 43 48
f 56 49 50
f 56 50 51
f 56 51 52
f 56 52 53
f 56 53 54
f 56 54 49
