# Generated by generate_assets.py — 90 verts, 160 faces
# No vertex normals — flat per-face geometric normals only

v 0.160000 0.000000 0.000000
v 0.113137 0.000000 0.113137
v 0.000000 0.000000 0.160000
v -0.113137 0.000000 0.113137
v -0.160000 0.000000 0.000000
v -0.113137 0.000000 -0.113137
v -0.000000 0.000000 -0.160000
v 0.113137 0.000000 -0.113137
v 0.120000 1.500000 0.000000
v 0.084853 1.500000 0.084853
v 0.000000 1.500000 0.120000
v -0.084853 1.500000 0.084853
v -0.120000 1.500000 0.000000
v -0.084853 1.500000 -0.084853
v -0.000000 1.500000 -0.120000
v 0.084853 1.500000 -0.084853
v 0.000000 0.000000 0.000000
v 0.000000 1.500000 0.000000
v 1.000000 1.200000 0.000000
v 0.707107 1.200000 0.707107
v 0.000000 1.200000 1.000000
v -0.707107 1.200000 0.707107
v -1.000000 1.200000 0.000000
v -0.707107 1.200000 -0.707107
v -0.000000 1.200000 -1.000000
v 0.707107 1.200000 -0.707107
v 0.950000 1.500000 0.000000
v 0.671751 1.500000 0.671751
v 0.000000 1.500000 0.950000
v -0.671751 1.500000 0.671751
v -0.950000 1.500000 0.000000
v -0.671751 1.500000 -0.671751
v -0.000000 1.500000 -0.950000
v 0.671751 1.500000 -0.671751
v 0.000000 1.200000 0.000000
v 0.000000 1.500000 0.000000
v 0.820000 1.600000 0.000000
v 0.579828 1.600000 0.579828
v 0.000000 1.600000 0.820000
v -0.579828 1.600000 0.579828
v -0.820000 1.600000 0.000000
v -0.579828 1.600000 -0.579828
v -0.000000 1.600000 -0.820000
v 0.579828 1.600000 -0.579828
v 0.779000 1.900000 0.000000
v 0.550836 1.900000 0.550836
v 0.000000 1.900000 0.779000
v -0.550836 1.900000 0.550836
v -0.779000 1.900000 0.000000
v -0.550836 1.900000 -0.550836
v -0.000000 1.900000 -0.779000
v 0.550836 1.900000 -0.550836
v 0.000000 1.600000 0.000000
v 0.000000 1.900000 0.000000
v 0.620000 2.000000 0.000000
v 0.438406 2.000000 0.438406
v 0.000000 2.000000 0.620000
v -0.438406 2.000000 0.438406
v -0.620000 2.000000 0.000000
v -0.438406 2.000000 -0.438406
v -0.000000 2.000000 -0.620000
v 0.438406 2.000000 -0.438406
v 0.589000 2.300000 0.000000
v 0.416486 2.300000 0.416486
v 0.000000 2.300000 0.589000
v -0.416486 2.300000 0.416486
v -0.589000 2.300000 0.000000
v -0.416486 2.300000 -0.416486
v -0.000000 2.300000 -0.589000
v 0.416486 2.300000 -0.416486
v 0.000000 2.000000 0.000000
v 0.000000 2.300000 0.000000
v 0.400000 2.400000 0.000000
v 0.282843 2.400000 0.282843
v 0.000000 2.400000 0.400000
v -0.282843 2.400000 0.282843
v -0.400000 2.400000 0.000000
v -0.282843 2.400000 -0.282843
v -0.000000 2.400000 -0.400000
v 0.282843 2.400000 -0.282843
v 0.380000 2.700000 0.000000
v 0.268701 2.700000 0.268701
v 0.000000 2.700000 0.380000
v -0.268701 2.700000 0.268701
v -0.380000 2.700000 0.000000
v -0.268701 2.700000 -0.268701
v -0.000000 2.700000 -0.380000
v 0.268701 2.700000 -0.268701
v 0.000000 2.400000 0.000000
v 0.000000 2.700000 0.000000

f 1 2 10
f 1 10 9
f 2 3 11
f 2 11 10
f 3 4 12
f 3 12 11
f 4 5 13
f 4 13 12
f 5 6 14
f 5 14 13
f 6 7 15
f 6 15 14
f 7 8 16
f 7 16 15
f 8 1 9
f 8 9 16
f 17 2 1
f 17 3 2
f 17 4 3
f 17 5 4
f 17 6 5
f 17 7 6
f 17 8 7
f 17 1 8
f 18 9 10
f 18 10 11
f 18 11 12
f 18 12 13
f 18 13 14
f 18 14 15
f 18 15 16
f 18 16 9
f 19 20 28
f 19 28 27
f 20 21 29
f 20 29 28
f 21 22 30
f 21 30 29
f 22 23 31
f 22 31 30
f 23 24 32
f 23 32 31
f 24 25 33
f 24 33 32
f 25 26 34
f 25 34 33
f 26 19 27
f 26 27 34
f 35 20 19
f 35 21 20
f 35 22 21
f 35 23 22
f 35 24 23
f 35 25 24
f 35 26 25
f 35 19 26
f 36 27 28
f 36 28 29
f 36 29 30
f 36 30 31
f 36 31 32
f 36 32 33
f 36 33 34
f 36 34 27
f 37 38 46
f 37 46 45
f 38 39 47
f 38 47 46
f 39 40 48
f 39 48 47
f 40 41 49
f 40 49 48
f 41 42 50
f 41 50 49
f 42 43 51
f 42 51 50
f 43 44 52
f 43 52 51
f 44 37 45
f 44 45 52
f 53 38 37
f 53 39 38
f 53 40 39
f 53 41 40
f 53 42 41
f 53 43 42
f 53 44 43
f 53 37 44
f 54 45 46
f 54 46 47
f 54 47 48
f 54 48 49
f 54 49 50
f 54 50 51
f 54 51 52
f 54 52 45
f 55 56 64
f 55 64 63
f 56 57 65
f 56 65 64
f 57 58 66
f 57 66 65
f 58 59 67
f 58 67 66
f 59 60 68
f 59 68 67
f 60 61 69
f 60 69 68
f 61 62 70
f 61 70 69
f 62 55 63
f 62 63 70
f 71 56 55
f 71 57 56
f 71 58 57
f 71 59 58
f 71 60 59
f 71 61 60
f 71 62 61
f 71 55 62
f 72 63 64
f 72 64 65
f 72 65 66
f 72 66 67
f 72 67 68
f 72 68 69
f 72 69 70
f 72 70 63
f 73 74 82
f 73 82 81
f 74 75 83
f 74 83 82
f 75 76 84
f 75 84 83
f 76 77 85
f 76 85 84
f 77 78 86
f 77 86 85
f 78 79 87
f 78 87 86
f 79 80 88
f 79 88 87
f 80 73 81
f 80 81 88
f 89 74 73
f 89 75 74
f 89 76 75
f 89 77 76
f 89 78 77
f 89 79 78
f 89 80 79
f 89 73 80
f 90 81 82
f 90 82 83
f 90 83 84
f 90 84 85
f 90 85 86
f 90 86 87
f 90 87 88
f 90 88 81
